<?xml version="1.0" encoding="UTF-8"?>
<svg width="107px" height="90px" viewBox="0 0 107 90" version="1.1" xmlns="http://www.w3.org/2000/svg" xmlns:xlink="http://www.w3.org/1999/xlink">
    <!-- Generator: sketchtool 41.2 (35397) - http://www.bohemiancoding.com/sketch -->
    <title>0218DCE4-314E-4EA1-B6C4-EE3A4134C8C0</title>
    <desc>Created with sketchtool.</desc>
    <defs></defs>
    <g id="Page-1" stroke="none" stroke-width="1" fill="none" fill-rule="evenodd">
        <g id="home" transform="translate(-252.000000, -752.000000)" stroke-width="3" stroke="#01BCD5">
            <g id="Group-23" transform="translate(164.000000, 754.000000)">
                <g id="icon-retail" transform="translate(90.000000, 0.000000)">
                    <g id="shopping">
                        <g id="Group">
                            <g id="Shape">
                                <g>
                                    <path d="M44.6333333,48.1685082 C44.6333333,46.2639497 46.1644989,44.72 48.06653,44.72 L99.5668033,44.72 C101.462905,44.72 103,46.2628851 103,48.1685082 L103,82.5514918 C103,84.4560503 101.468834,86 99.5668033,86 L48.06653,86 C46.1704279,86 44.6333333,84.4571149 44.6333333,82.5514918 L44.6333333,48.1685082 L44.6333333,48.1685082 Z M80.6833333,58.6223515 C80.6833333,62.4220706 77.6090219,65.5023515 73.8166667,65.5023515 C70.0243114,65.5023515 66.95,62.4220706 66.95,58.6223515 L66.95,55.04 C66.95,53.1401405 65.4128443,51.6 63.5166667,51.6 C61.620489,51.6 60.0833333,53.1401405 60.0833333,55.04 L60.0833333,58.6223515 C60.0833333,66.2217897 66.2319561,72.3823515 73.8166667,72.3823515 C81.4013772,72.3823515 87.55,66.2217897 87.55,58.6223515 L87.55,55.04 C87.55,53.1401405 86.0128443,51.6 84.1166667,51.6 C82.220489,51.6 80.6833333,53.1401405 80.6833333,55.04 L80.6833333,58.6223515 L80.6833333,58.6223515 Z"></path>
                                    <path d="M44.6333333,17.2 L53.2127436,17.2 C55.1110878,17.2 56.65,18.7334485 56.65,20.6353416 L56.65,39.56 L46.3503646,39.56 C42.5596548,39.56 39.4833333,42.6417274 39.4833333,46.443231 L39.4833333,82.556769 C39.4833333,83.811048 39.8181771,84.9871202 40.40317,86 L3.43725648,86 C1.53891215,86 0,84.4665515 0,82.5646584 L0,20.6353416 C0,18.7380548 1.54463079,17.2 3.43725648,17.2 L13.7333333,17.2 L13.7333333,27.6623515 C13.7333333,29.562211 15.270489,31.1023515 17.1666667,31.1023515 C19.0628443,31.1023515 20.6,29.562211 20.6,27.6623515 L20.6,17.2 L37.7666667,17.2 L37.7666667,27.6623515 C37.7666667,29.562211 39.3038224,31.1023515 41.2,31.1023515 C43.0961776,31.1023515 44.6333333,29.562211 44.6333333,27.6623515 L44.6333333,17.2 L44.6333333,17.2 Z"></path>
                                    <path d="M44.6333333,13.76 C44.6333333,6.03275796 37.6087557,0 29.1833333,0 C20.757911,0 13.7333333,6.03275796 13.7333333,13.76 L13.7333333,17.3423515 L20.6,17.3423515 L20.6,13.76 C20.6,10.0880848 24.3355122,6.88 29.1833333,6.88 C34.0311545,6.88 37.7666667,10.0880848 37.7666667,13.76 L37.7666667,17.3423515 L44.6333333,17.3423515 L44.6333333,13.76 Z"></path>
                                </g>
                            </g>
                        </g>
                    </g>
                </g>
            </g>
        </g>
    </g>
</svg>