<?xml version="1.0" encoding="UTF-8"?>
<svg width="150px" height="96px" viewBox="0 0 150 96" version="1.1" xmlns="http://www.w3.org/2000/svg" xmlns:xlink="http://www.w3.org/1999/xlink">
    <!-- Generator: sketchtool 41.2 (35397) - http://www.bohemiancoding.com/sketch -->
    <title>78AC7C49-DE59-4EE3-90DA-3646CD63128C</title>
    <desc>Created with sketchtool.</desc>
    <defs></defs>
    <g id="Page-1" stroke="none" stroke-width="1" fill="none" fill-rule="evenodd">
        <g id="home" transform="translate(-646.000000, -750.000000)" fill="#01BCD5">
            <g id="Group-27" transform="translate(585.000000, 750.000000)">
                <g id="icon-trust" transform="translate(61.000000, 0.000000)">
                    <g id="Group">
                        <g id="Shape">
                            <path d="M118.742222,48 C118.742222,46.4894118 119.676741,44.6484706 120.580296,42.8696471 C121.846963,40.3708235 123.161481,37.7872941 122.483111,35.2404706 C121.776593,32.5863529 119.291111,30.9769412 116.890074,29.4183529 C115.268741,28.368 113.593926,27.2809412 112.887407,26.0583529 C112.161185,24.8018824 112.057037,22.7745882 111.952889,20.8150588 C111.803704,17.9802353 111.651704,15.0465882 109.751704,13.1407059 C107.851704,11.2348235 104.929926,11.0823529 102.103852,10.9327059 C100.15037,10.8282353 98.1293333,10.7237647 96.8739259,9.99529412 C95.6551111,9.28941176 94.5742222,7.60658824 93.5242963,5.98023529 C91.9705185,3.57176471 90.3688889,1.08141176 87.7201481,0.372705882 C85.3557037,-0.265411765 82.6112593,1.00517647 80.1145185,2.28141176 C78.3411852,3.18776471 76.5059259,4.12517647 75,4.12517647 C73.4940741,4.12517647 71.6588148,3.18776471 69.8854815,2.28141176 C67.3887407,1.008 64.6386667,-0.262588235 62.2798519,0.372705882 C59.6339259,1.08141176 58.0294815,3.57176471 56.4757037,5.98023529 C55.4285926,7.60658824 54.3448889,9.28941176 53.1260741,9.99529412 C51.8706667,10.7237647 49.8496296,10.8282353 47.8961481,10.9327059 C45.0700741,11.0823529 42.1482963,11.2376471 40.2482963,13.1435294 C38.3482963,15.0494118 38.1962963,17.9802353 38.0442963,20.8150588 C37.9401481,22.7745882 37.836,24.8018824 37.1097778,26.0611765 C36.4060741,27.2837647 34.7284444,28.3708235 33.1071111,29.4211765 C30.7060741,30.9769412 28.2234074,32.5863529 27.5168889,35.2404706 C26.8385185,37.7872941 28.1502222,40.3708235 29.4197037,42.8696471 C30.3232593,44.6484706 31.2577778,46.4894118 31.2577778,48.0028235 C31.2577778,49.5162353 30.3232593,51.3571765 29.4197037,53.1331765 C28.1502222,55.6348235 26.8385185,58.2183529 27.5168889,60.7623529 C28.2234074,63.4164706 30.7060741,65.0287059 33.1071111,66.5844706 C34.7284444,67.6376471 36.4060741,68.7247059 37.1125926,69.9444706 C37.836,71.2009412 37.942963,73.2282353 38.0471111,75.1877647 C38.1962963,78.0254118 38.3482963,80.9562353 40.2511111,82.8621176 C42.1511111,84.768 45.0728889,84.9204706 47.898963,85.0701176 C49.8552593,85.1717647 51.8762963,85.2790588 53.1288889,86.0075294 C54.3477037,86.7162353 55.4314074,88.3990588 56.4813333,90.0254118 C58.0322963,92.4338824 59.6395556,94.9242353 62.2826667,95.6329412 C64.6414815,96.2625882 67.3915556,94.9948235 69.8854815,93.7214118 C71.6588148,92.8150588 73.4940741,91.8776471 75.0028148,91.8776471 C76.5115556,91.8776471 78.3468148,92.8150588 80.122963,93.7214118 C82.1355556,94.7491765 84.2185185,95.8136471 86.2902222,95.8136471 C86.7884444,95.8136471 87.2697778,95.7543529 87.7285926,95.6329412 C90.3688889,94.9214118 91.9733333,92.4310588 93.5271111,90.0225882 C94.5742222,88.3962353 95.6607407,86.7134118 96.8767407,86.0047059 C98.1293333,85.2762353 100.15037,85.1717647 102.103852,85.0672941 C104.929926,84.9176471 107.854519,84.7651765 109.754519,82.8592941 C111.654519,80.9534118 111.806519,78.0225882 111.955704,75.1849412 C112.059852,73.2254118 112.164,71.1981176 112.890222,69.9416471 C113.596741,68.7190588 115.271556,67.6348235 116.892889,66.5844706 C119.296741,65.0287059 121.779407,63.4192941 122.488741,60.7623529 C123.164296,58.2183529 121.852593,55.6348235 120.583111,53.136 C119.676741,51.3543529 118.742222,49.5134118 118.742222,48 Z M119.764,60.0338824 C119.338963,61.6348235 117.317926,62.9449412 115.364444,64.2098824 C113.46163,65.4437647 111.496889,66.7171765 110.452593,68.5270588 C109.388593,70.3708235 109.261926,72.7425882 109.143704,75.0352941 C109.022667,77.3392941 108.896,79.7223529 107.76163,80.8602353 C106.627259,81.9981176 104.251556,82.1251765 101.954667,82.2465882 C99.669037,82.3651765 97.3074074,82.4922353 95.4665185,83.5595294 C93.6565926,84.6070588 92.3871111,86.5807059 91.1598519,88.4894118 C89.8988148,90.4461176 88.5927407,92.4734118 86.9967407,92.8997647 C86.7743704,92.9590588 86.5435556,92.9872941 86.2902222,92.9872941 L86.2874074,92.9872941 C84.8884444,92.9872941 83.1122963,92.0809412 81.3980741,91.2028235 C79.3235556,90.1496471 77.1814815,89.0541176 75,89.0541176 C72.8185185,89.0541176 70.6764444,90.1496471 68.6047407,91.2084706 C66.5752593,92.2447059 64.4416296,93.2978824 63.0060741,92.9054118 C61.4100741,92.4790588 60.104,90.4517647 58.842963,88.4950588 C57.6128889,86.5863529 56.3434074,84.6155294 54.5362963,83.568 C52.6954074,82.4978824 50.330963,82.3736471 48.0425185,82.2522353 C45.7456296,82.1308235 43.3727407,82.0065882 42.2383704,80.8687059 C41.1011852,79.7308235 40.9773333,77.3477647 40.8562963,75.0437647 C40.7352593,72.7510588 40.6114074,70.3821176 39.5474074,68.5355294 C38.5031111,66.7228235 36.5383704,65.4465882 34.6355556,64.2155294 C32.6820741,62.9505882 30.661037,61.6404706 30.236,60.0395294 C29.8362963,58.5402353 30.8524444,56.5383529 31.9277037,54.4207059 C32.9832593,52.3454118 34.0725926,50.1967059 34.0725926,48.0084706 C34.0725926,45.8202353 32.9832593,43.6715294 31.9277037,41.5962353 C30.8524444,39.4785882 29.8362963,37.4795294 30.236,35.9774118 C30.6638519,34.3764706 32.6820741,33.0663529 34.6355556,31.8014118 C36.5355556,30.5675294 38.5031111,29.2941176 39.5474074,27.4842353 C40.6114074,25.6376471 40.7380741,23.2658824 40.8562963,20.9731765 C40.9773333,18.6691765 41.1011852,16.2889412 42.2383704,15.1482353 C43.3727407,14.0075294 45.7484444,13.8832941 48.0425185,13.7618824 C50.3281481,13.6432941 52.6954074,13.5162353 54.5362963,12.4489412 C56.3405926,11.4014118 57.6100741,9.43058824 58.8401481,7.52188235 C60.104,5.56235294 61.4100741,3.53505882 63.0060741,3.10870588 C64.4500741,2.71623529 66.5780741,3.76658824 68.6075556,4.80564706 C70.6764444,5.86447059 72.8185185,6.95717647 75,6.95717647 C77.1814815,6.95717647 79.3235556,5.86164706 81.3924444,4.80564706 C83.4247407,3.76658824 85.5555556,2.72470588 86.9939259,3.10870588 C88.5899259,3.53788235 89.896,5.56235294 91.157037,7.52188235 C92.3871111,9.42776471 93.6594074,11.4014118 95.4637037,12.4489412 C97.3017778,13.5162353 99.6662222,13.6432941 101.954667,13.7618824 C104.248741,13.8832941 106.624444,14.0075294 107.758815,15.1482353 C108.893185,16.2889412 109.019852,18.672 109.140889,20.9731765 C109.259111,23.2658824 109.385778,25.6376471 110.449778,27.4842353 C111.494074,29.2941176 113.458815,30.5675294 115.36163,31.8014118 C117.312296,33.0663529 119.333333,34.3764706 119.75837,35.9802353 C120.160889,37.4795294 119.144741,39.4814118 118.066667,41.5990588 C117.019556,43.6630588 115.927407,45.8117647 115.927407,48 C115.927407,50.1882353 117.019556,52.3369412 118.075111,54.4150588 C119.15037,56.5298824 120.166519,58.5317647 119.764,60.0338824 Z"></path>
                            <path d="M75,12.7058824 C55.5974815,12.7058824 39.8148148,28.5374118 39.8148148,48 C39.8148148,67.4625882 55.5974815,83.2941176 75,83.2941176 C94.4025185,83.2941176 110.185185,67.4625882 110.185185,48 C110.185185,28.5374118 94.4025185,12.7058824 75,12.7058824 Z M75,80.4705882 C57.1512593,80.4705882 42.6296296,65.904 42.6296296,48 C42.6296296,30.096 57.1512593,15.5294118 75,15.5294118 C92.8487407,15.5294118 107.37037,30.096 107.37037,48 C107.37037,65.904 92.8487407,80.4705882 75,80.4705882 Z"></path>
                            <path d="M91.7988148,40.5176471 L79.9906667,40.5176471 L76.3398519,29.2517647 C75.9626667,28.0912941 74.0401481,28.0884706 73.662963,29.2517647 L70.014963,40.5176471 L58.2068148,40.5176471 C57.596,40.5176471 57.0555556,40.9129412 56.866963,41.4945882 C56.6783704,42.0762353 56.8838519,42.7143529 57.3792593,43.0729412 L66.9327407,50.0357647 L63.2847407,61.3044706 C63.0961481,61.8861176 63.3016296,62.5242353 63.797037,62.8828235 C64.2924444,63.2414118 64.9595556,63.2414118 65.4521481,62.8828235 L75,55.9171765 L84.5534815,62.88 C84.8011852,63.0578824 85.0882963,63.1510588 85.381037,63.1510588 C85.6737778,63.1510588 85.9608889,63.0607059 86.2085926,62.88 C86.7011852,62.5214118 86.9066667,61.8832941 86.7208889,61.3016471 L83.0728889,50.0329412 L92.6291852,43.0729412 C93.1217778,42.7143529 93.3272593,42.0762353 93.1414815,41.4945882 C92.9472593,40.9129412 92.4096296,40.5176471 91.7988148,40.5176471 Z M80.5874074,48.3529412 C80.0948148,48.7115294 79.8893333,49.3496471 80.0751111,49.9312941 L82.7013333,58.0432941 L75.8275556,53.0315294 C75.5798519,52.8536471 75.2899259,52.7604706 75,52.7604706 C74.7100741,52.7604706 74.4173333,52.8508235 74.1724444,53.0315294 L67.2958519,58.0432941 L69.9220741,49.9312941 C70.1106667,49.3496471 69.9051852,48.7115294 69.4097778,48.3529412 L62.5331852,43.3411765 L71.0339259,43.3411765 C71.6447407,43.3411765 72.1851852,42.9458824 72.3737778,42.3642353 L75,34.2550588 L77.629037,42.3670588 C77.8176296,42.9487059 78.3580741,43.3411765 78.9688889,43.3411765 L87.4696296,43.3411765 L80.5874074,48.3529412 Z"></path>
                            <path d="M18.7037037,35.2941176 L1.81481481,35.2941176 C1.32785185,35.2941176 0.874666667,35.5482353 0.618518519,35.9632941 C0.36237037,36.3783529 0.337037037,36.9007059 0.556592593,37.3355294 L5.87096296,48 L0.556592593,58.6616471 C0.337037037,59.0992941 0.36237037,59.6188235 0.618518519,60.0338824 C0.874666667,60.4489412 1.32785185,60.7058824 1.81481481,60.7058824 L18.7037037,60.7058824 C19.1653333,60.7058824 19.596,60.48 19.8605926,60.0988235 C20.842963,58.6785882 25.7407407,51.4249412 25.7407407,48 C25.7407407,44.5750588 20.842963,37.3214118 19.8605926,35.9011765 C19.596,35.52 19.1653333,35.2941176 18.7037037,35.2941176 Z M17.9605926,57.8823529 L4.092,57.8823529 L8.70266667,48.6324706 C8.8997037,48.2343529 8.8997037,47.7656471 8.70266667,47.3703529 L4.092,38.1176471 L17.9605926,38.1176471 C20.1477037,41.3788235 22.9259259,46.2409412 22.9259259,48 C22.9259259,49.7590588 20.1477037,54.624 17.9605926,57.8823529 Z"></path>
                            <path d="M144.129037,48 L149.446222,37.3383529 C149.662963,36.9007059 149.640444,36.3811765 149.387111,35.9661176 C149.125333,35.5482353 148.672148,35.2941176 148.185185,35.2941176 L131.296296,35.2941176 C130.834667,35.2941176 130.404,35.52 130.139407,35.9011765 C129.157037,37.3214118 124.259259,44.5750588 124.259259,48 C124.259259,51.4249412 129.157037,58.6785882 130.139407,60.0988235 C130.404,60.48 130.834667,60.7058824 131.296296,60.7058824 L148.185185,60.7058824 C148.672148,60.7058824 149.125333,60.4517647 149.384296,60.0367059 C149.640444,59.6216471 149.662963,59.1021176 149.443407,58.6644706 L144.129037,48 Z M132.039407,57.8823529 C129.849481,54.624 127.074074,49.7590588 127.074074,48 C127.074074,46.2409412 129.849481,41.3788235 132.039407,38.1176471 L145.910815,38.1176471 L141.297333,47.3675294 C141.100296,47.7656471 141.100296,48.2343529 141.297333,48.6296471 L145.910815,57.8795294 L132.039407,57.8795294 L132.039407,57.8823529 Z"></path>
                        </g>
                    </g>
                </g>
            </g>
        </g>
    </g>
</svg>