<?xml version="1.0" encoding="UTF-8"?>
<svg width="93px" height="92px" viewBox="0 0 93 92" version="1.1" xmlns="http://www.w3.org/2000/svg" xmlns:xlink="http://www.w3.org/1999/xlink">
    <!-- Generator: sketchtool 41.2 (35397) - http://www.bohemiancoding.com/sketch -->
    <title>C27A18AA-8F40-46D9-82B6-AA6BBEE87DF8</title>
    <desc>Created with sketchtool.</desc>
    <defs></defs>
    <g id="Page-1" stroke="none" stroke-width="1" fill="none" fill-rule="evenodd" stroke-linecap="round" stroke-linejoin="round">
        <g id="home" transform="translate(-1073.000000, -752.000000)" stroke-width="3" stroke="#01BCD5">
            <g id="Group-28" transform="translate(957.000000, 746.000000)">
                <g id="icon-refunds" transform="translate(112.000000, 0.000000)">
                    <g id="Group">
                        <path d="M94.8996075,54.4045738 C93.6140668,77.6820328 74.346501,96.1607869 50.7666138,96.1607869 C32.0497203,96.1607869 16.0499875,84.5179016 9.60375783,68.0739672 M91.8804927,35.649623 C85.4025344,19.271541 69.4364468,7.6872623 50.7666138,7.6872623 C27.1901336,7.6872623 7.92469729,26.1611148 6.63425887,49.4340984 M8.06928601,63.3161803 L6.28417954,68.385541 L12.4974489,66.1169344 L8.06928601,63.3161803 Z M93.5216493,40.7833443 L95.5141628,35.7753607 L89.1232985,37.7040492 L93.5216493,40.7833443 Z M37.69081,61.8525082 C38.6490564,71.4420328 50.7666138,72.0815902 50.7666138,72.0815902 C64.0402422,72.0815902 63.2425553,61.8525082 63.2425553,61.8525082 C63.2425553,54.1805902 50.7666138,51.9241311 50.7666138,51.9241311 C41.6102505,50.0060984 39.9265052,42.9931311 39.9265052,42.9931311 C36.7325637,30.2068852 50.7666138,29.9937705 50.7666138,29.9937705 C61.9261378,30.42 61.6454781,38.5712131 61.6454781,38.5712131 M50.7666138,23.1743115 L50.4670021,80.7123115 L50.7666138,23.1743115 Z" id="Shape"></path>
                    </g>
                </g>
            </g>
        </g>
    </g>
</svg>