<?xml version="1.0" encoding="UTF-8"?>
<svg width="150px" height="31px" viewBox="0 0 150 31" version="1.1" xmlns="http://www.w3.org/2000/svg" xmlns:xlink="http://www.w3.org/1999/xlink">
    <g id="Symbols" stroke="none" stroke-width="1" fill="none" fill-rule="evenodd">
        <g id="navbar" transform="translate(-50.000000, -21.000000)">
            <g id="Group-20">
                <g id="logo" transform="translate(50.000000, 17.000000)">
                    <g id="Group">
                        <g id="Group-3-Copy-4" transform="translate(59.036145, 18.373494) rotate(-13.000000) translate(-59.036145, -18.373494) translate(45.783133, 3.012048)"></g>
                        <g id="Group-2" transform="translate(0.000000, 4.216867)">
                            <path d="M0.20214548,20.7284038 C0.667080085,21.199307 2.12252754,22.3049059 4.75041879,22.3049059 C7.72195735,22.3049059 9.52105212,20.1756044 9.52105212,18.0667769 C9.52105212,15.2823057 7.01444817,14.0333885 5.43771342,13.3986928 C3.84076413,12.7435231 3.23432769,12.1702496 3.23432769,11.4127097 C3.23432769,10.8599102 3.78012048,10.368533 4.50784421,10.368533 C5.74093164,10.368533 7.21659365,11.4946059 7.39852458,11.5969761 C7.58045551,11.7402945 7.94431738,11.556028 8.08581921,11.3308134 L9.11676116,9.75431136 C9.19761935,9.61099299 9.23804845,9.24246004 8.99547387,9.09914166 C8.38903743,8.6487125 6.77187359,7.56358768 4.6695606,7.56358768 C1.5565202,7.56358768 0,9.61099299 0,11.6379242 C0,14.0948106 2.18317119,15.4665722 3.92162232,16.16269 C5.29621158,16.7154894 6.00372077,17.3706591 6.00372077,18.2305693 C6.00372077,18.9471612 5.41749887,19.4590125 4.60891695,19.4590125 C3.27475678,19.4590125 1.81930932,18.3738877 1.73845113,18.3329396 C1.59694929,18.2305693 1.21287288,18.1896212 1.0511565,18.4557839 L0.10107274,20.1551303 C-0.0606436441,20.4417671 0,20.5236633 0.20214548,20.7284038 Z M18.2537369,21.6087881 C18.2537369,21.8749508 18.4558824,22.1001654 18.738886,22.1001654 L21.1039881,22.1001654 C21.3667773,22.1001654 21.5891373,21.8749508 21.5891373,21.6087881 L21.5891373,15.5075203 L26.2586979,21.9363729 C26.299127,21.9977951 26.4810579,22.0796913 26.6225598,22.0796913 L29.4121674,22.0796913 C29.7962438,22.0796913 30.0186038,21.6292621 29.7962438,21.3221514 L24.6415341,14.5247657 L29.3717383,8.52586818 C29.5940983,8.21875738 29.3919528,7.76832821 29.0078764,7.76832821 L26.4608434,7.76832821 C26.3395561,7.76832821 26.1576252,7.87069848 26.076767,7.97306875 L21.5891373,13.6443814 L21.5891373,8.25970549 C21.5891373,7.9935428 21.3667773,7.76832821 21.1039881,7.76832821 L18.738886,7.76832821 C18.4558824,7.76832821 18.2537369,7.9935428 18.2537369,8.25970549 L18.2537369,21.6087881 Z M38.1246376,21.7111584 C38.1246376,21.9158989 38.3065685,22.1001654 38.508714,22.1001654 L40.9344598,22.1001654 C41.1366052,22.1001654 41.3185362,21.9158989 41.3185362,21.7111584 L41.3185362,8.15733522 C41.3185362,7.95259469 41.1366052,7.76832821 40.9344598,7.76832821 L38.508714,7.76832821 C38.3065685,7.76832821 38.1246376,7.95259469 38.1246376,8.15733522 L38.1246376,21.7111584 Z M71.7090555,21.7111584 C71.7090555,21.9158989 71.8707719,22.1001654 72.0931319,22.1001654 L79.6938019,22.1001654 C79.916162,22.1001654 80.0778784,21.9158989 80.0778784,21.7111584 L80.0778784,19.4794866 C80.0778784,19.274746 79.916162,19.0904796 79.6938019,19.0904796 L74.8827395,19.0904796 L74.8827395,8.15733522 C74.8827395,7.95259469 74.7008086,7.76832821 74.4986631,7.76832821 L72.0931319,7.76832821 C71.8707719,7.76832821 71.7090555,7.95259469 71.7090555,8.15733522 L71.7090555,21.7111584 Z M88.3051994,21.7111584 C88.3051994,21.9158989 88.4871303,22.1001654 88.6892758,22.1001654 L91.1150216,22.1001654 C91.3171671,22.1001654 91.499098,21.9158989 91.499098,21.7111584 L91.499098,8.15733522 C91.499098,7.95259469 91.3171671,7.76832821 91.1150216,7.76832821 L88.6892758,7.76832821 C88.4871303,7.76832821 88.3051994,7.95259469 88.3051994,8.15733522 L88.3051994,21.7111584 Z M101.24251,21.7111584 C101.24251,21.9158989 101.424441,22.1001654 101.626587,22.1001654 L104.032118,22.1001654 C104.254478,22.1001654 104.416194,21.9158989 104.416194,21.7111584 L104.416194,14.0743366 L112.421155,22.2025356 C112.461584,22.2434837 112.623301,22.3049059 112.683944,22.3049059 L113.007377,22.3049059 C113.209523,22.3049059 113.391454,22.1411135 113.391454,21.9363729 L113.391454,8.15733522 C113.391454,7.95259469 113.209523,7.76832821 113.007377,7.76832821 L110.581631,7.76832821 C110.359271,7.76832821 110.197555,7.95259469 110.197555,8.15733522 L110.197555,15.4256241 L102.111736,7.56358768 L101.606372,7.56358768 C101.404227,7.56358768 101.222296,7.72738011 101.222296,7.93212064 L101.24251,21.7111584 Z M123.134866,21.7111584 C123.134866,21.9158989 123.296582,22.1001654 123.518942,22.1001654 L131.887765,22.1001654 C132.110125,22.1001654 132.271841,21.9158989 132.271841,21.7111584 L132.271841,19.4794866 C132.271841,19.274746 132.110125,19.0904796 131.887765,19.0904796 L126.288335,19.0904796 L126.288335,16.3264824 L130.897252,16.3264824 C131.099398,16.3264824 131.281329,16.16269 131.281329,15.9374754 L131.281329,13.7058036 C131.281329,13.5010631 131.099398,13.3167966 130.897252,13.3167966 L126.288335,13.3167966 L126.288335,10.778014 L131.887765,10.778014 C132.110125,10.778014 132.271841,10.5937475 132.271841,10.389007 L132.271841,8.15733522 C132.271841,7.95259469 132.110125,7.76832821 131.887765,7.76832821 L123.518942,7.76832821 C123.296582,7.76832821 123.134866,7.95259469 123.134866,8.15733522 L123.134866,21.7111584 Z M140.539592,20.7284038 C141.004526,21.199307 142.459974,22.3049059 145.087865,22.3049059 C148.059403,22.3049059 149.858498,20.1756044 149.858498,18.0667769 C149.858498,15.2823057 147.351894,14.0333885 145.775159,13.3986928 C144.17821,12.7435231 143.571774,12.1702496 143.571774,11.4127097 C143.571774,10.8599102 144.117567,10.368533 144.84529,10.368533 C146.078378,10.368533 147.55404,11.4946059 147.735971,11.5969761 C147.917902,11.7402945 148.281763,11.556028 148.423265,11.3308134 L149.454207,9.75431136 C149.535065,9.61099299 149.575494,9.24246004 149.33292,9.09914166 C148.726483,8.6487125 147.10932,7.56358768 145.007007,7.56358768 C141.893966,7.56358768 140.337446,9.61099299 140.337446,11.6379242 C140.337446,14.0948106 142.520617,15.4665722 144.259068,16.16269 C145.633658,16.7154894 146.341167,17.3706591 146.341167,18.2305693 C146.341167,18.9471612 145.754945,19.4590125 144.946363,19.4590125 C143.612203,19.4590125 142.156755,18.3738877 142.075897,18.3329396 C141.934395,18.2305693 141.550319,18.1896212 141.388603,18.4557839 L140.438519,20.1551303 C140.276802,20.4417671 140.337446,20.5236633 140.539592,20.7284038 Z" id="SKI-LINES-Copy-4" fill="#ffffff"></path>
                            <path d="M57.4861648,0.419607469 C57.4861648,-0.567679842 58.2809675,-1.36803434 59.2722336,-1.36803434 L59.4478525,-1.36803434 C60.434271,-1.36803434 61.1505438,-0.567343337 61.048977,0.408022953 L57.8609404,31.0233767 L57.4861648,31.0233767 L57.4861648,0.419607469 Z" id="Rectangle" fill="#01BCD5" transform="translate(59.272369, 14.827671) rotate(31.000000) translate(-59.272369, -14.827671) "></path>
                            <path d="M50.7894714,1.98536236 C50.7894714,0.998075049 51.5842742,0.197720547 52.5755402,0.197720547 L52.7511591,0.197720547 C53.7375777,0.197720547 54.4538504,0.998411554 54.3522836,1.97377784 L51.1642471,32.5891316 L50.7894714,32.5891316 L50.7894714,1.98536236 Z" id="Rectangle-Copy" fill="#01BCD5" transform="translate(52.575675, 16.393426) rotate(25.000000) translate(-52.575675, -16.393426) "></path>
                        </g>
                    </g>
                </g>
            </g>
        </g>
    </g>
</svg>